<svg xmlns="http://www.w3.org/2000/svg" viewBox="0 0 45.07 53.55"><defs><style>.cls-1{fill:#de5e50;}</style></defs><title>資產 55</title><g id="圖層_2" data-name="圖層 2"><g id="物件"><path class="cls-1" d="M43.58,19a3.59,3.59,0,0,0-2-.59,3.39,3.39,0,0,0-1.37.28l-.19.08-.24.1v8.9a1.49,1.49,0,1,1-3,0V18.26a3.17,3.17,0,0,0-1.48-2.72,3.62,3.62,0,0,0-2-.59,3.43,3.43,0,0,0-1.37.28l-.42.18V25a1.49,1.49,0,0,1-3,0V14.79a3.22,3.22,0,0,0-1.49-2.72,3.54,3.54,0,0,0-3.35-.32l-.18.08-.23.1,0,10.36a1.49,1.49,0,1,1-3,0l0-18c0-2-.42-3.28-1.21-3.81A2.27,2.27,0,0,0,17.85,0a2.94,2.94,0,0,0-1.7.68c-.84.58-.91,2-.91,3.27V31A2.06,2.06,0,0,1,13.92,33a2.28,2.28,0,0,1-.77.14,2.06,2.06,0,0,1-1.52-.67l-7.35-8h0a3.33,3.33,0,0,0-2-.9,1.55,1.55,0,0,0-.31,0A2.56,2.56,0,0,0,.33,25a3.49,3.49,0,0,0,.42,3.63C5.17,34.43,13.41,49,15.83,53.34l.11.21H40.75l.07-.32c.68-3.15,2.34-10.7,3.12-12.86.69-2,1.05-7.81,1.13-9.91V21.7A3.2,3.2,0,0,0,43.58,19"/></g></g></svg>