<svg xmlns="http://www.w3.org/2000/svg" viewBox="0 0 134.21 52.13"><defs><style>.cls-1{fill:#1a1a1a;}.cls-2{fill:#eb6153;}</style></defs><title>資產 57 (2)</title><g id="圖層_2" data-name="圖層 2"><g id="物件"><path class="cls-1" d="M25.2,15.19H17.86V13.54a7.86,7.86,0,0,0-1.19-4.36,4.41,4.41,0,0,0-4-1.84,4.67,4.67,0,0,0-2.45.58A4.84,4.84,0,0,0,8.71,9.36a6.05,6.05,0,0,0-.79,2.12A14.33,14.33,0,0,0,7.7,14a24.79,24.79,0,0,0,.11,2.52,4.73,4.73,0,0,0,.54,1.8,4.09,4.09,0,0,0,1.26,1.37,12.13,12.13,0,0,0,2.27,1.15L17.5,23a14.13,14.13,0,0,1,4,2.2,9.53,9.53,0,0,1,2.37,2.91,13.47,13.47,0,0,1,1.08,3.93,39.08,39.08,0,0,1,.29,5,26.43,26.43,0,0,1-.65,6,12.67,12.67,0,0,1-2.09,4.72,10.3,10.3,0,0,1-4,3.17,14.06,14.06,0,0,1-6,1.15,13,13,0,0,1-5-.94,11.58,11.58,0,0,1-4-2.59A12.72,12.72,0,0,1,1,44.75,11.69,11.69,0,0,1,0,40V37.22H7.34v2.31a6,6,0,0,0,1.19,3.63,4.64,4.64,0,0,0,4,1.62,6.39,6.39,0,0,0,2.91-.54,3.82,3.82,0,0,0,1.62-1.54,5.63,5.63,0,0,0,.69-2.42c.07-.93.11-2,.11-3.13a29.76,29.76,0,0,0-.15-3.31,5.79,5.79,0,0,0-.57-2.09,3.94,3.94,0,0,0-1.34-1.29,16,16,0,0,0-2.19-1.08L8.35,27.22c-3.17-1.3-5.29-3-6.37-5.15A17.72,17.72,0,0,1,.36,14a18.55,18.55,0,0,1,.79-5.47A12.45,12.45,0,0,1,3.53,4.1a10.93,10.93,0,0,1,3.85-3A12.77,12.77,0,0,1,13,0a12.21,12.21,0,0,1,5,1,12.92,12.92,0,0,1,3.93,2.66,11.13,11.13,0,0,1,3.31,7.92Z"/><path class="cls-1" d="M36.94,51.7V7.34h-8.5V.43H52.78V7.34h-8.5V51.7Z"/><path class="cls-2" d="M50.18,51.7,61.63.43h6.12L79.2,51.7H71.86l-2.16-11h-10l-2.16,11ZM68.33,33.77l-3.6-18.58h-.15L61,33.77Z"/><path class="cls-1" d="M84.24,51.7V.43h21.89V7.34H91.58V22.9h12.67v6.91H91.58V51.7Z"/><path class="cls-1" d="M112.32,51.7V.43h21.89V7.34H119.66V22.9h12.67v6.91H119.66V51.7Z"/></g></g></svg>