<svg xmlns="http://www.w3.org/2000/svg" viewBox="0 0 94.31 69.69"><defs><style>.cls-1{fill:#eb6153;}.cls-2{fill:#df5f50;}.cls-3{fill:#e26e62;}</style></defs><title>資產 59</title><g id="圖層_2" data-name="圖層 2"><g id="物件"><path class="cls-1" d="M0,69.51v-11H4.67a7.89,7.89,0,0,1,2.55.29,2.53,2.53,0,0,1,1.28,1A3.17,3.17,0,0,1,9,61.6a2.88,2.88,0,0,1-.73,2,3.44,3.44,0,0,1-2.17,1,5.27,5.27,0,0,1,1.19.92,13.32,13.32,0,0,1,1.26,1.78l1.34,2.15H7.22l-1.6-2.39A14.88,14.88,0,0,0,4.45,65.5a1.65,1.65,0,0,0-.67-.45,3.33,3.33,0,0,0-1.11-.13H2.22v4.59Zm2.22-6.34H3.86a8.38,8.38,0,0,0,2-.14,1.2,1.2,0,0,0,.62-.46,1.42,1.42,0,0,0,.23-.82,1.32,1.32,0,0,0-.3-.9,1.36,1.36,0,0,0-.84-.43c-.17,0-.71,0-1.61,0H2.22Z"/><path class="cls-1" d="M11.38,69.51v-11h8.14v1.85H13.59v2.44h5.52v1.85H13.59v3h6.14v1.85Z"/><path class="cls-1" d="M31.82,69.51H29.4l-1-2.5H24.06l-.91,2.5H20.8l4.27-11h2.35Zm-4.09-4.35-1.51-4.07-1.48,4.07Z"/><path class="cls-1" d="M33.29,58.53h4.05a7.88,7.88,0,0,1,2.09.21,3.61,3.61,0,0,1,1.66,1,4.7,4.7,0,0,1,1,1.78,8,8,0,0,1,.36,2.59,7.41,7.41,0,0,1-.34,2.34A4.93,4.93,0,0,1,41,68.4a3.89,3.89,0,0,1-1.56.87,6.44,6.44,0,0,1-2,.24H33.29Zm2.22,1.85v7.28h1.65a5.92,5.92,0,0,0,1.34-.11,2,2,0,0,0,.9-.46A2.23,2.23,0,0,0,40,66a7.16,7.16,0,0,0,.22-2A6.52,6.52,0,0,0,40,62.07,2.54,2.54,0,0,0,39.35,61a2.13,2.13,0,0,0-1-.51,9.84,9.84,0,0,0-1.82-.11Z"/><path class="cls-1" d="M49.22,69.51v-11h3.32l2,7.49,2-7.49h3.33v11H57.77V60.86l-2.18,8.65H53.45l-2.17-8.65v8.65Z"/><path class="cls-1" d="M61.89,64.08a6.86,6.86,0,0,1,.5-2.81,5.29,5.29,0,0,1,1-1.51,4.35,4.35,0,0,1,1.42-1,6,6,0,0,1,2.37-.43,5.17,5.17,0,0,1,3.88,1.5A5.79,5.79,0,0,1,72.54,64a5.77,5.77,0,0,1-1.45,4.16,5.11,5.11,0,0,1-3.86,1.5,5.18,5.18,0,0,1-3.9-1.49A5.7,5.7,0,0,1,61.89,64.08ZM64.17,64A4.16,4.16,0,0,0,65,66.84a2.82,2.82,0,0,0,2.19,1,2.76,2.76,0,0,0,2.17-1A4.16,4.16,0,0,0,70.24,64a4.15,4.15,0,0,0-.82-2.82,3.07,3.07,0,0,0-4.41,0A4.15,4.15,0,0,0,64.17,64Z"/><path class="cls-1" d="M74.58,69.51v-11h4.67a7.89,7.89,0,0,1,2.55.29,2.53,2.53,0,0,1,1.28,1,3.17,3.17,0,0,1,.48,1.73,2.88,2.88,0,0,1-.73,2,3.44,3.44,0,0,1-2.17,1,5.27,5.27,0,0,1,1.19.92,13.32,13.32,0,0,1,1.26,1.78l1.34,2.15H81.8l-1.6-2.39A14.88,14.88,0,0,0,79,65.5a1.65,1.65,0,0,0-.67-.45,3.33,3.33,0,0,0-1.11-.13H76.8v4.59Zm2.22-6.34h1.64a8.38,8.38,0,0,0,2-.14,1.2,1.2,0,0,0,.62-.46,1.42,1.42,0,0,0,.23-.82,1.32,1.32,0,0,0-.3-.9,1.36,1.36,0,0,0-.84-.43c-.18,0-.71,0-1.61,0H76.8Z"/><path class="cls-1" d="M86,69.51v-11H94.1v1.85H88.17v2.44h5.52v1.85H88.17v3h6.14v1.85Z"/><path class="cls-2" d="M47.22,47.24A23.62,23.62,0,1,1,70.84,23.62,23.65,23.65,0,0,1,47.22,47.24Zm0-45.52a21.9,21.9,0,1,0,21.91,21.9A21.93,21.93,0,0,0,47.22,1.72Z"/><polygon class="cls-3" points="37.52 21.5 40.41 18.61 47.22 25.43 54.04 18.61 56.93 21.5 47.22 31.21 37.52 21.5"/></g></g></svg>